<?xml version="1.0" encoding="UTF-8" standalone="no"?>
<!-- Created with Inkscape (http://www.inkscape.org/) -->

<svg
   xmlns:dc="http://purl.org/dc/elements/1.1/"
   xmlns:cc="http://creativecommons.org/ns#"
   xmlns:rdf="http://www.w3.org/1999/02/22-rdf-syntax-ns#"
   xmlns:svg="http://www.w3.org/2000/svg"
   xmlns="http://www.w3.org/2000/svg"
   xmlns:sodipodi="http://sodipodi.sourceforge.net/DTD/sodipodi-0.dtd"
   xmlns:inkscape="http://www.inkscape.org/namespaces/inkscape"
   version="1.1"
   id="svg815"
   width="400"
   height="400"
   viewBox="0 0 400 400"
   sodipodi:docname="mrtg-transp.svg"
   inkscape:version="0.92.5 (2060ec1f9f, 2020-04-08)">
  <metadata
     id="metadata821">
    <rdf:RDF>
      <cc:Work
         rdf:about="">
        <dc:format>image/svg+xml</dc:format>
        <dc:type
           rdf:resource="http://purl.org/dc/dcmitype/StillImage" />
        <dc:title />
      </cc:Work>
    </rdf:RDF>
  </metadata>
  <defs
     id="defs819" />
  <sodipodi:namedview
     pagecolor="#ffffff"
     bordercolor="#666666"
     borderopacity="1"
     objecttolerance="10"
     gridtolerance="10"
     guidetolerance="10"
     inkscape:pageopacity="0"
     inkscape:pageshadow="2"
     inkscape:window-width="2560"
     inkscape:window-height="1387"
     id="namedview817"
     showgrid="false"
     showguides="false"
     inkscape:guide-bbox="true"
     inkscape:zoom="2.1566757"
     inkscape:cx="125.73326"
     inkscape:cy="232.59287"
     inkscape:window-x="-8"
     inkscape:window-y="22"
     inkscape:window-maximized="1"
     inkscape:current-layer="svg815">
    <sodipodi:guide
       position="258.03279,324.2623"
       orientation="0,1"
       id="guide825"
       inkscape:locked="false" />
    <sodipodi:guide
       position="-56.065574,298.03279"
       orientation="0,1"
       id="guide827"
       inkscape:locked="false" />
    <sodipodi:guide
       position="120.32787,242.62295"
       orientation="1,0"
       id="guide829"
       inkscape:locked="false" />
    <sodipodi:guide
       position="199.67213,261.96721"
       orientation="1,0"
       id="guide831"
       inkscape:locked="false" />
    <sodipodi:guide
       position="279.67213,228.19672"
       orientation="1,0"
       id="guide833"
       inkscape:locked="false" />
    <sodipodi:guide
       position="128.52459,222.95082"
       orientation="1,0"
       id="guide835"
       inkscape:locked="false" />
    <sodipodi:guide
       position="217.21311,209.59016"
       orientation="1,0"
       id="guide837"
       inkscape:locked="false" />
    <sodipodi:guide
       position="220.4918,248.03279"
       orientation="0,1"
       id="guide839"
       inkscape:locked="false" />
    <sodipodi:guide
       position="249.83607,317.04918"
       orientation="0,1"
       id="guide843"
       inkscape:locked="false" />
    <sodipodi:guide
       position="239.34426,304.91803"
       orientation="0,1"
       id="guide845"
       inkscape:locked="false" />
    <sodipodi:guide
       position="257.37705,287.21311"
       orientation="0,1"
       id="guide847"
       inkscape:locked="false" />
    <sodipodi:guide
       position="143.93443,257.70492"
       orientation="1,0"
       id="guide849"
       inkscape:locked="false" />
    <sodipodi:guide
       position="182.62295,197.86885"
       orientation="1,0"
       id="guide851"
       inkscape:locked="false" />
    <sodipodi:guide
       position="255.40984,192.45902"
       orientation="1,0"
       id="guide857"
       inkscape:locked="false" />
    <sodipodi:guide
       position="175.90164,235"
       orientation="1,0"
       id="guide859"
       inkscape:locked="false" />
    <sodipodi:guide
       position="223.85246,224.5082"
       orientation="1,0"
       id="guide861"
       inkscape:locked="false" />
    <sodipodi:guide
       position="168.52459,174.09836"
       orientation="1,0"
       id="guide863"
       inkscape:locked="false" />
    <sodipodi:guide
       position="231.14754,145.57377"
       orientation="1,0"
       id="guide865"
       inkscape:locked="false" />
    <sodipodi:guide
       position="292.45902,173.77049"
       orientation="0,1"
       id="guide867"
       inkscape:locked="false" />
    <sodipodi:guide
       position="236.80328,254.67213"
       orientation="0,1"
       id="guide869"
       inkscape:locked="false" />
    <sodipodi:guide
       position="225.90164,189.42623"
       orientation="0,1"
       id="guide873"
       inkscape:locked="false" />
    <sodipodi:guide
       position="226.14754,266.14754"
       orientation="0,1"
       id="guide875"
       inkscape:locked="false" />
    <sodipodi:guide
       position="233.19672,179.67213"
       orientation="0,1"
       id="guide877"
       inkscape:locked="false" />
    <sodipodi:guide
       position="214.83607,243.85246"
       orientation="0,1"
       id="guide881"
       inkscape:locked="false" />
    <sodipodi:guide
       position="217.21311,186.88525"
       orientation="0,1"
       id="guide890"
       inkscape:locked="false" />
    <sodipodi:guide
       position="189.42623,235.4918"
       orientation="1,0"
       id="guide892"
       inkscape:locked="false" />
    <sodipodi:guide
       position="215.16393,222.13115"
       orientation="0,1"
       id="guide897"
       inkscape:locked="false" />
    <sodipodi:guide
       position="210.57377,212.45902"
       orientation="1,0"
       id="guide899"
       inkscape:locked="false" />
    <sodipodi:guide
       position="214.18033,233.60656"
       orientation="0,1"
       id="guide901"
       inkscape:locked="false" />
    <sodipodi:guide
       position="217.21311,211.22951"
       orientation="0,1"
       id="guide903"
       inkscape:locked="false" />
    <sodipodi:guide
       position="-57.495896,135.85724"
       orientation="1,0"
       id="guide987"
       inkscape:locked="false" />
  </sodipodi:namedview>
  <path
     style="fill:#0065b3;stroke:none;stroke-width:1px;stroke-linecap:butt;stroke-linejoin:miter;stroke-opacity:1;fill-opacity:1"
     d="m 120.32787,147.54098 79.34426,-71.80328 80,71.80328 -8.52459,9.83607 -71.47541,-63.934427 -71.14754,63.934427 z"
     id="path841"
     inkscape:connector-curvature="0" />
  <path
     style="fill:#0065b3;stroke:none;stroke-width:1px;stroke-linecap:butt;stroke-linejoin:miter;stroke-opacity:1;fill-opacity:1"
     d="m 143.93443,82.95082 h 19.34426 v 12.13115 l -19.34426,17.70492 z"
     id="path853"
     inkscape:connector-curvature="0" />
  <path
     style="fill:#0065b3;stroke:none;stroke-width:1px;stroke-linecap:butt;stroke-linejoin:miter;stroke-opacity:1;fill-opacity:1"
     d="m 143.93443,150.81967 55.7377,-48.85246 55.73771,48.85246 v 71.80328 c 0.16393,2.70492 -0.90164,3.68853 -3.27869,3.60656 h -24.2623 c 0,0 3.27869,-1.78821 3.27869,-4.91803 v -70.49181 c -0.40983,-5.98361 -7.70492,-12.13115 -11.47541,-12.13115 h -38.03279 c -3.85246,-0.082 -11.96721,4.1803 -13.11475,12.13115 v 70.81967 c 0.11592,2.66614 3.60656,4.59017 3.60656,4.59017 h -23.93443 c -1.91267,0 -4.26229,-0.26479 -4.26229,-3.27869 z"
     id="path871"
     inkscape:connector-curvature="0"
     sodipodi:nodetypes="cccccccccccccccc" />
  <path
     style="fill:#22c2f2;stroke:none;stroke-width:1px;stroke-linecap:butt;stroke-linejoin:miter;stroke-opacity:1;fill-opacity:1;opacity:1"
     d="M 182.62305 145.32812 C 178.93453 145.49205 176.06627 148.27828 175.90234 151.9668 L 175.90234 220.32812 C 176.06627 224.26256 179.26239 226.31247 182.62305 226.23047 L 217.21289 226.23047 C 221.31125 226.31244 223.85156 224.01665 223.85156 220.32812 L 223.85156 151.9668 C 224.09746 148.03237 221.14732 145.24613 217.21289 145.32812 L 182.62305 145.32812 z M 182.62305 156.14844 L 217.21289 156.14844 L 217.21289 210.57422 L 182.62305 210.57422 L 182.62305 156.14844 z M 199.87695 213.11523 A 3.9754119 3.9754119 0 0 1 203.85156 217.08984 A 3.9754119 3.9754119 0 0 1 199.87695 221.06641 A 3.9754119 3.9754119 0 0 1 195.90234 217.08984 A 3.9754119 3.9754119 0 0 1 199.87695 213.11523 z "
     id="path879" />
  <path
     style="opacity:1;fill:#0065b3;fill-opacity:1;stroke:none;stroke-width:1.37952757;stroke-linecap:square;stroke-miterlimit:4;stroke-dasharray:none;stroke-opacity:1;paint-order:markers stroke fill"
     d="M 189.42578 166.39258 L 189.42578 176.39258 L 198.36133 176.39258 L 198.36133 166.39258 L 189.42578 166.39258 z M 201.06641 166.39258 L 201.06641 176.39258 L 210.57422 176.39258 L 210.57422 166.39258 L 201.06641 166.39258 z M 189.42578 179.17969 L 189.42578 188.76953 L 198.36133 188.76953 L 198.36133 179.17969 L 189.42578 179.17969 z M 201.06641 179.17969 L 201.06641 188.76953 L 210.57422 188.76953 L 210.57422 179.17969 L 201.06641 179.17969 z "
     id="rect905" />
    <path
       d="m 48.013621,264.87062 h 8.294271 l 5.755209,13.52474 5.789063,-13.52474 h 8.277344 v 25.27214 h -6.161459 v -18.48437 l -5.822917,13.6263 h -4.130208 l -5.822917,-13.6263 v 18.48437 h -6.178386 z"
       style="font-style:normal;font-variant:normal;font-weight:bold;font-stretch:normal;font-size:34.66666794px;font-family:sans-serif;-inkscape-font-specification:'sans-serif, Bold';font-variant-ligatures:normal;font-variant-caps:normal;font-variant-numeric:normal;font-feature-settings:normal;text-align:start;writing-mode:lr-tb;text-anchor:start;fill:#22c2f2;fill-opacity:1"
       id="path963" />
    <path
       d="m 94.089142,269.13625 q -2.979166,0 -4.621094,2.20052 -1.641927,2.20052 -1.641927,6.19531 0,3.97787 1.641927,6.17839 1.641928,2.20052 4.621094,2.20052 2.996094,0 4.638021,-2.20052 1.641927,-2.20052 1.641927,-6.17839 0,-3.99479 -1.641927,-6.19531 -1.641927,-2.20052 -4.638021,-2.20052 z m 0,-4.72266 q 6.093748,0 9.546878,3.48698 3.45312,3.48698 3.45312,9.63151 0,6.12761 -3.45312,9.61459 -3.45313,3.48698 -9.546878,3.48698 -6.076823,0 -9.546875,-3.48698 -3.453125,-3.48698 -3.453125,-9.61459 0,-6.14453 3.453125,-9.63151 3.470052,-3.48698 9.546875,-3.48698 z"
       style="font-style:normal;font-variant:normal;font-weight:bold;font-stretch:normal;font-size:34.66666794px;font-family:sans-serif;-inkscape-font-specification:'sans-serif, Bold';font-variant-ligatures:normal;font-variant-caps:normal;font-variant-numeric:normal;font-feature-settings:normal;text-align:start;writing-mode:lr-tb;text-anchor:start;fill:#22c2f2;fill-opacity:1"
       id="path965" />
    <path
       d="m 121.25711,276.07635 q 2.04818,0 2.92839,-0.76171 0.89713,-0.76172 0.89713,-2.50521 0,-1.72657 -0.89713,-2.47136 -0.88021,-0.74479 -2.92839,-0.74479 h -2.74219 v 6.48307 z m -2.74219,4.50261 v 9.5638 H 111.998 v -25.27214 h 9.95312 q 4.99349,0 7.3125,1.67579 2.33594,1.67578 2.33594,5.29817 0,2.50521 -1.21875,4.11328 -1.20182,1.60808 -3.63932,2.3698 1.33724,0.30468 2.38672,1.38802 1.0664,1.0664 2.14973,3.25 l 3.53777,7.17708 h -6.94011 l -3.08073,-6.27995 q -0.93099,-1.89583 -1.89583,-2.58984 -0.94792,-0.69401 -2.53906,-0.69401 z"
       style="font-style:normal;font-variant:normal;font-weight:bold;font-stretch:normal;font-size:34.66666794px;font-family:sans-serif;-inkscape-font-specification:'sans-serif, Bold';font-variant-ligatures:normal;font-variant-caps:normal;font-variant-numeric:normal;font-feature-settings:normal;text-align:start;writing-mode:lr-tb;text-anchor:start;fill:#22c2f2;fill-opacity:1"
       id="path967" />
    <path
       d="m 134.10477,264.87062 h 23.29167 v 4.92579 h -8.37891 v 20.34635 h -6.51692 v -20.34635 h -8.39584 z"
       style="font-style:normal;font-variant:normal;font-weight:bold;font-stretch:normal;font-size:34.66666794px;font-family:sans-serif;-inkscape-font-specification:'sans-serif, Bold';font-variant-ligatures:normal;font-variant-caps:normal;font-variant-numeric:normal;font-feature-settings:normal;text-align:start;writing-mode:lr-tb;text-anchor:start;fill:#22c2f2;fill-opacity:1"
       id="path969" />
    <path
       d="m 183.46414,288.26385 q -2.4375,1.1849 -5.0612,1.77735 -2.62369,0.59245 -5.41666,0.59245 -6.3138,0 -10.00391,-3.52084 -3.6901,-3.53776 -3.6901,-9.58073 0,-6.11067 3.75781,-9.61458 3.75781,-3.50391 10.29167,-3.50391 2.52213,0 4.82422,0.47396 2.31901,0.47396 4.36718,1.40495 v 5.23047 q -2.11588,-1.20182 -4.21484,-1.79427 -2.08203,-0.59245 -4.18099,-0.59245 -3.89323,0 -6.00912,2.18359 -2.09895,2.16667 -2.09895,6.21224 0,4.01172 2.03125,6.19532 2.03125,2.18359 5.77213,2.18359 1.01563,0 1.87891,-0.11849 0.88021,-0.13542 1.57422,-0.40625 v -4.90885 h -3.97787 v -4.36719 h 10.15625 z"
       style="font-style:normal;font-variant:normal;font-weight:bold;font-stretch:normal;font-size:34.66666794px;font-family:sans-serif;-inkscape-font-specification:'sans-serif, Bold';font-variant-ligatures:normal;font-variant-caps:normal;font-variant-numeric:normal;font-feature-settings:normal;text-align:start;writing-mode:lr-tb;text-anchor:start;fill:#22c2f2;fill-opacity:1"
       id="path971" />
    <path
       d="m 204.52143,285.53859 h -10.1901 l -1.60807,4.60417 h -6.55078 l 9.36067,-25.27214 h 7.76953 l 9.36068,25.27214 h -6.55078 z m -8.5651,-4.6888 h 6.92318 l -3.45313,-10.05469 z"
       style="font-style:normal;font-variant:normal;font-weight:bold;font-stretch:normal;font-size:34.66666794px;font-family:sans-serif;-inkscape-font-specification:'sans-serif, Bold';font-variant-ligatures:normal;font-variant-caps:normal;font-variant-numeric:normal;font-feature-settings:normal;text-align:start;writing-mode:lr-tb;text-anchor:start;fill:#22c2f2;fill-opacity:1"
       id="path973" />
    <path
       d="m 238.71414,288.26385 q -2.4375,1.1849 -5.0612,1.77735 -2.62369,0.59245 -5.41666,0.59245 -6.3138,0 -10.00391,-3.52084 -3.6901,-3.53776 -3.6901,-9.58073 0,-6.11067 3.75781,-9.61458 3.75781,-3.50391 10.29167,-3.50391 2.52213,0 4.82422,0.47396 2.31901,0.47396 4.36718,1.40495 v 5.23047 q -2.11588,-1.20182 -4.21484,-1.79427 -2.08203,-0.59245 -4.18099,-0.59245 -3.89323,0 -6.00912,2.18359 -2.09895,2.16667 -2.09895,6.21224 0,4.01172 2.03125,6.19532 2.03125,2.18359 5.77213,2.18359 1.01563,0 1.87891,-0.11849 0.88021,-0.13542 1.57422,-0.40625 v -4.90885 h -3.97787 v -4.36719 h 10.15625 z"
       style="font-style:normal;font-variant:normal;font-weight:bold;font-stretch:normal;font-size:34.66666794px;font-family:sans-serif;-inkscape-font-specification:'sans-serif, Bold';font-variant-ligatures:normal;font-variant-caps:normal;font-variant-numeric:normal;font-feature-settings:normal;text-align:start;writing-mode:lr-tb;text-anchor:start;fill:#22c2f2;fill-opacity:1"
       id="path975" />
    <path
       d="m 244.43551,264.87062 h 17.58724 v 4.92579 h -11.07031 v 4.70573 h 10.41016 v 4.92578 h -10.41016 v 5.78906 h 11.44271 v 4.92578 h -17.95964 z"
       style="font-style:normal;font-variant:normal;font-weight:bold;font-stretch:normal;font-size:34.66666794px;font-family:sans-serif;-inkscape-font-specification:'sans-serif, Bold';font-variant-ligatures:normal;font-variant-caps:normal;font-variant-numeric:normal;font-feature-settings:normal;text-align:start;writing-mode:lr-tb;text-anchor:start;fill:#22c2f2;fill-opacity:1"
       id="path977" />
    <path
       d="m 285.72066,265.6662 v 5.34896 q -2.08203,-0.93099 -4.0625,-1.40495 -1.98047,-0.47396 -3.74089,-0.47396 -2.33594,0 -3.45312,0.64323 -1.11719,0.64323 -1.11719,1.9974 0,1.01562 0.74479,1.59114 0.76172,0.55859 2.74219,0.96484 l 2.77604,0.5586 q 4.21484,0.84635 5.99219,2.57292 1.77734,1.72656 1.77734,4.90885 0,4.18099 -2.48828,6.22917 -2.47135,2.03125 -7.56641,2.03125 -2.40364,0 -4.82421,-0.45703 -2.42058,-0.45704 -4.84115,-1.35417 v -5.5013 q 2.42057,1.28645 4.67187,1.94661 2.26823,0.64323 4.36719,0.64323 2.13281,0 3.26693,-0.71094 1.13411,-0.71093 1.13411,-2.03125 0,-1.18489 -0.77864,-1.82812 -0.76172,-0.64323 -3.0638,-1.15104 l -2.52214,-0.5586 q -3.79167,-0.8125 -5.55208,-2.58984 -1.74349,-1.77735 -1.74349,-4.79037 0,-3.77474 2.4375,-5.80599 2.4375,-2.03125 7.00781,-2.03125 2.08203,0 4.28255,0.32162 2.20052,0.30469 4.55339,0.93099 z"
       style="font-style:normal;font-variant:normal;font-weight:bold;font-stretch:normal;font-size:34.66666794px;font-family:sans-serif;-inkscape-font-specification:'sans-serif, Bold';font-variant-ligatures:normal;font-variant-caps:normal;font-variant-numeric:normal;font-feature-settings:normal;text-align:start;writing-mode:lr-tb;text-anchor:start;fill:#22c2f2;fill-opacity:1"
       id="path979" />
    <path
       d="m 329.27406,264.87062 h 6.51693 v 15.14975 q 0,3.13151 1.01562,4.48567 1.03255,1.33724 3.35156,1.33724 2.33594,0 3.35157,-1.33724 1.03255,-1.35416 1.03255,-4.48567 v -15.14975 h 6.51693 v 15.14975 q 0,5.36588 -2.69141,7.98958 -2.69141,2.6237 -8.20964,2.6237 -5.5013,0 -8.19271,-2.6237 -2.6914,-2.6237 -2.6914,-7.98958 z"
       style="font-style:normal;font-variant:normal;font-weight:bold;font-stretch:normal;font-size:34.66666794px;font-family:sans-serif;-inkscape-font-specification:'sans-serif, Bold';font-variant-ligatures:normal;font-variant-caps:normal;font-variant-numeric:normal;font-feature-settings:normal;text-align:start;writing-mode:lr-tb;text-anchor:start;fill:#22c2f2;fill-opacity:1"
       id="path981" />
  <g
     aria-label="4"
     id="text961"
     transform="translate(18.547063,-10.664561)">
    <path
       d="m 289.57796,290.60419 -7.14323,10.57942 h 7.14323 z m -1.08333,-5.36589 h 7.24479 v 15.94531 h 3.60547 v 4.72266 h -3.60547 v 4.60417 h -6.16146 v -4.60417 h -11.20573 v -5.58594 z"
       style="font-style:normal;font-variant:normal;font-weight:bold;font-stretch:normal;font-size:34.66666794px;font-family:sans-serif;-inkscape-font-specification:'sans-serif, Bold';font-variant-ligatures:normal;font-variant-caps:normal;font-variant-numeric:normal;font-feature-settings:normal;text-align:start;writing-mode:lr-tb;text-anchor:start;fill:#22c2f2;fill-opacity:1;stroke:none;stroke-opacity:1"
       id="path984"
       inkscape:connector-curvature="0" />
  </g>
</svg>
