<?xml version="1.0" encoding="UTF-8" standalone="no"?>
<!-- Created with Inkscape (http://www.inkscape.org/) -->

<svg
   xmlns:dc="http://purl.org/dc/elements/1.1/"
   xmlns:cc="http://creativecommons.org/ns#"
   xmlns:rdf="http://www.w3.org/1999/02/22-rdf-syntax-ns#"
   xmlns:svg="http://www.w3.org/2000/svg"
   xmlns="http://www.w3.org/2000/svg"
   xmlns:sodipodi="http://sodipodi.sourceforge.net/DTD/sodipodi-0.dtd"
   xmlns:inkscape="http://www.inkscape.org/namespaces/inkscape"
   version="1.1"
   id="svg815"
   width="323.18259"
   height="281.91534"
   viewBox="0 0 323.18259 281.91534"
   sodipodi:docname="mrtg-white.svg"
   inkscape:version="0.92.5 (2060ec1f9f, 2020-04-08)">
  <metadata
     id="metadata821">
    <rdf:RDF>
      <cc:Work
         rdf:about="">
        <dc:format>image/svg+xml</dc:format>
        <dc:type
           rdf:resource="http://purl.org/dc/dcmitype/StillImage" />
        <dc:title></dc:title>
      </cc:Work>
    </rdf:RDF>
  </metadata>
  <defs
     id="defs819" />
  <sodipodi:namedview
     pagecolor="#ffffff"
     bordercolor="#666666"
     borderopacity="1"
     objecttolerance="10"
     gridtolerance="10"
     guidetolerance="10"
     inkscape:pageopacity="0"
     inkscape:pageshadow="2"
     inkscape:window-width="2560"
     inkscape:window-height="1387"
     id="namedview817"
     showgrid="false"
     showguides="false"
     inkscape:guide-bbox="true"
     inkscape:zoom="2.1566757"
     inkscape:cx="8.654924"
     inkscape:cy="157.47725"
     inkscape:window-x="-8"
     inkscape:window-y="22"
     inkscape:window-maximized="1"
     inkscape:current-layer="svg815">
    <sodipodi:guide
       position="218.1566,249.14668"
       orientation="0,1"
       id="guide825"
       inkscape:locked="false" />
    <sodipodi:guide
       position="-95.94176,222.91717"
       orientation="0,1"
       id="guide827"
       inkscape:locked="false" />
    <sodipodi:guide
       position="80.451683,167.50733"
       orientation="1,0"
       id="guide829"
       inkscape:locked="false" />
    <sodipodi:guide
       position="159.79594,186.85159"
       orientation="1,0"
       id="guide831"
       inkscape:locked="false" />
    <sodipodi:guide
       position="239.79594,153.0811"
       orientation="1,0"
       id="guide833"
       inkscape:locked="false" />
    <sodipodi:guide
       position="88.648403,147.8352"
       orientation="1,0"
       id="guide835"
       inkscape:locked="false" />
    <sodipodi:guide
       position="177.33692,134.47454"
       orientation="1,0"
       id="guide837"
       inkscape:locked="false" />
    <sodipodi:guide
       position="180.61561,172.91717"
       orientation="0,1"
       id="guide839"
       inkscape:locked="false" />
    <sodipodi:guide
       position="209.95988,241.93356"
       orientation="0,1"
       id="guide843"
       inkscape:locked="false" />
    <sodipodi:guide
       position="199.46807,229.80241"
       orientation="0,1"
       id="guide845"
       inkscape:locked="false" />
    <sodipodi:guide
       position="217.50086,212.09749"
       orientation="0,1"
       id="guide847"
       inkscape:locked="false" />
    <sodipodi:guide
       position="104.05824,182.5893"
       orientation="1,0"
       id="guide849"
       inkscape:locked="false" />
    <sodipodi:guide
       position="142.74676,122.75323"
       orientation="1,0"
       id="guide851"
       inkscape:locked="false" />
    <sodipodi:guide
       position="215.53365,117.3434"
       orientation="1,0"
       id="guide857"
       inkscape:locked="false" />
    <sodipodi:guide
       position="136.02545,159.88438"
       orientation="1,0"
       id="guide859"
       inkscape:locked="false" />
    <sodipodi:guide
       position="183.97627,149.39258"
       orientation="1,0"
       id="guide861"
       inkscape:locked="false" />
    <sodipodi:guide
       position="128.6484,98.98274"
       orientation="1,0"
       id="guide863"
       inkscape:locked="false" />
    <sodipodi:guide
       position="191.27135,70.45815"
       orientation="1,0"
       id="guide865"
       inkscape:locked="false" />
    <sodipodi:guide
       position="252.58283,98.65487"
       orientation="0,1"
       id="guide867"
       inkscape:locked="false" />
    <sodipodi:guide
       position="196.92709,179.55651"
       orientation="0,1"
       id="guide869"
       inkscape:locked="false" />
    <sodipodi:guide
       position="186.02545,114.31061"
       orientation="0,1"
       id="guide873"
       inkscape:locked="false" />
    <sodipodi:guide
       position="186.27135,191.03192"
       orientation="0,1"
       id="guide875"
       inkscape:locked="false" />
    <sodipodi:guide
       position="193.32053,104.55651"
       orientation="0,1"
       id="guide877"
       inkscape:locked="false" />
    <sodipodi:guide
       position="174.95988,168.73684"
       orientation="0,1"
       id="guide881"
       inkscape:locked="false" />
    <sodipodi:guide
       position="177.33692,111.76963"
       orientation="0,1"
       id="guide890"
       inkscape:locked="false" />
    <sodipodi:guide
       position="149.55004,160.37618"
       orientation="1,0"
       id="guide892"
       inkscape:locked="false" />
    <sodipodi:guide
       position="175.28774,147.01553"
       orientation="0,1"
       id="guide897"
       inkscape:locked="false" />
    <sodipodi:guide
       position="170.69758,137.3434"
       orientation="1,0"
       id="guide899"
       inkscape:locked="false" />
    <sodipodi:guide
       position="174.30414,158.49094"
       orientation="0,1"
       id="guide901"
       inkscape:locked="false" />
    <sodipodi:guide
       position="177.33692,136.11389"
       orientation="0,1"
       id="guide903"
       inkscape:locked="false" />
    <sodipodi:guide
       position="-97.372082,60.74162"
       orientation="1,0"
       id="guide987"
       inkscape:locked="false" />
  </sodipodi:namedview>
  <rect
     style="opacity:1;fill:#ffffff;fill-opacity:1;stroke:none;stroke-width:1.37952757;stroke-linecap:square;stroke-miterlimit:4;stroke-dasharray:none;stroke-opacity:1;paint-order:markers stroke fill"
     id="rect864"
     width="323.18259"
     height="281.91534"
     x="0"
     y="0" />
  <path
     style="fill:#0065b3;fill-opacity:1;stroke:none;stroke-width:1px;stroke-linecap:butt;stroke-linejoin:miter;stroke-opacity:1"
     d="m 80.451684,104.57194 79.344256,-71.803276 80,71.803276 -8.52459,9.83607 -71.47541,-63.934423 -71.147536,63.934423 z"
     id="path841"
     inkscape:connector-curvature="0" />
  <path
     style="fill:#0065b3;fill-opacity:1;stroke:none;stroke-width:1px;stroke-linecap:butt;stroke-linejoin:miter;stroke-opacity:1"
     d="m 104.05824,39.981784 h 19.34426 v 12.13115 l -19.34426,17.70492 z"
     id="path853"
     inkscape:connector-curvature="0" />
  <path
     style="fill:#0065b3;fill-opacity:1;stroke:none;stroke-width:1px;stroke-linecap:butt;stroke-linejoin:miter;stroke-opacity:1"
     d="m 104.05824,107.85063 55.7377,-48.852456 55.73771,48.852456 v 71.80328 c 0.16393,2.70492 -0.90164,3.68853 -3.27869,3.60656 h -24.2623 c 0,0 3.27869,-1.78821 3.27869,-4.91803 v -70.49181 c -0.40983,-5.98361 -7.70492,-12.131146 -11.47541,-12.131146 h -38.03279 c -3.85246,-0.082 -11.96721,4.1803 -13.11475,12.131146 v 70.81967 c 0.11592,2.66614 3.60656,4.59017 3.60656,4.59017 h -23.93443 c -1.91267,0 -4.26229,-0.26479 -4.26229,-3.27869 z"
     id="path871"
     inkscape:connector-curvature="0"
     sodipodi:nodetypes="cccccccccccccccc" />
  <path
     style="opacity:1;fill:#22c2f2;fill-opacity:1;stroke:none;stroke-width:1px;stroke-linecap:butt;stroke-linejoin:miter;stroke-opacity:1"
     d="m 142.74686,102.35908 c -3.68852,0.16393 -6.55678,2.95016 -6.72071,6.63868 v 68.36132 c 0.16393,3.93444 3.36005,5.98435 6.72071,5.90235 h 34.58984 c 4.09836,0.082 6.63867,-2.21382 6.63867,-5.90235 v -68.36132 c 0.2459,-3.93443 -2.70424,-6.72067 -6.63867,-6.63868 z m 0,10.82032 h 34.58984 v 54.42578 h -34.58984 z m 17.2539,56.96679 a 3.9754119,3.9754119 0 0 1 3.97461,3.97461 3.9754119,3.9754119 0 0 1 -3.97461,3.97657 3.9754119,3.9754119 0 0 1 -3.97461,-3.97657 3.9754119,3.9754119 0 0 1 3.97461,-3.97461 z"
     id="path879"
     inkscape:connector-curvature="0" />
  <path
     style="opacity:1;fill:#0065b3;fill-opacity:1;stroke:none;stroke-width:1.37952757;stroke-linecap:square;stroke-miterlimit:4;stroke-dasharray:none;stroke-opacity:1;paint-order:markers stroke fill"
     d="m 149.54959,123.42354 v 10 h 8.93555 v -10 z m 11.64063,0 v 10 h 9.50781 v -10 z m -11.64063,12.78711 v 9.58984 h 8.93555 v -9.58984 z m 11.64063,0 v 9.58984 h 9.50781 v -9.58984 z"
     id="rect905"
     inkscape:connector-curvature="0" />
  <path
     d="m 8.1374346,221.90158 h 8.2942714 l 5.755209,13.52474 5.789063,-13.52474 h 8.277344 v 25.27214 h -6.161459 v -18.48437 l -5.822917,13.6263 h -4.130208 l -5.822917,-13.6263 v 18.48437 H 8.1374346 Z"
     style="font-style:normal;font-variant:normal;font-weight:bold;font-stretch:normal;font-size:34.66666794px;font-family:sans-serif;-inkscape-font-specification:'sans-serif, Bold';font-variant-ligatures:normal;font-variant-caps:normal;font-variant-numeric:normal;font-feature-settings:normal;text-align:start;writing-mode:lr-tb;text-anchor:start;fill:#22c2f2;fill-opacity:1"
     id="path963"
     inkscape:connector-curvature="0" />
  <path
     d="m 54.212956,226.16721 q -2.979166,0 -4.621094,2.20052 -1.641927,2.20052 -1.641927,6.19531 0,3.97787 1.641927,6.17839 1.641928,2.20052 4.621094,2.20052 2.996094,0 4.638021,-2.20052 1.641927,-2.20052 1.641927,-6.17839 0,-3.99479 -1.641927,-6.19531 -1.641927,-2.20052 -4.638021,-2.20052 z m 0,-4.72266 q 6.093748,0 9.546878,3.48698 3.45312,3.48698 3.45312,9.63151 0,6.12761 -3.45312,9.61459 -3.45313,3.48698 -9.546878,3.48698 -6.076823,0 -9.546875,-3.48698 -3.453125,-3.48698 -3.453125,-9.61459 0,-6.14453 3.453125,-9.63151 3.470052,-3.48698 9.546875,-3.48698 z"
     style="font-style:normal;font-variant:normal;font-weight:bold;font-stretch:normal;font-size:34.66666794px;font-family:sans-serif;-inkscape-font-specification:'sans-serif, Bold';font-variant-ligatures:normal;font-variant-caps:normal;font-variant-numeric:normal;font-feature-settings:normal;text-align:start;writing-mode:lr-tb;text-anchor:start;fill:#22c2f2;fill-opacity:1"
     id="path965"
     inkscape:connector-curvature="0" />
  <path
     d="m 81.380924,233.10731 q 2.04818,0 2.92839,-0.76171 0.89713,-0.76172 0.89713,-2.50521 0,-1.72657 -0.89713,-2.47136 -0.88021,-0.74479 -2.92839,-0.74479 h -2.74219 v 6.48307 z m -2.74219,4.50261 v 9.5638 h -6.51692 v -25.27214 h 9.95312 q 4.99349,0 7.3125,1.67579 2.33594,1.67578 2.33594,5.29817 0,2.50521 -1.21875,4.11328 -1.20182,1.60808 -3.63932,2.3698 1.33724,0.30468 2.38672,1.38802 1.0664,1.0664 2.14973,3.25 l 3.53777,7.17708 h -6.94011 l -3.08073,-6.27995 q -0.93099,-1.89583 -1.89583,-2.58984 -0.94792,-0.69401 -2.53906,-0.69401 z"
     style="font-style:normal;font-variant:normal;font-weight:bold;font-stretch:normal;font-size:34.66666794px;font-family:sans-serif;-inkscape-font-specification:'sans-serif, Bold';font-variant-ligatures:normal;font-variant-caps:normal;font-variant-numeric:normal;font-feature-settings:normal;text-align:start;writing-mode:lr-tb;text-anchor:start;fill:#22c2f2;fill-opacity:1"
     id="path967"
     inkscape:connector-curvature="0" />
  <path
     d="m 94.228584,221.90158 h 23.291666 v 4.92579 h -8.37891 v 20.34635 h -6.51692 v -20.34635 h -8.395836 z"
     style="font-style:normal;font-variant:normal;font-weight:bold;font-stretch:normal;font-size:34.66666794px;font-family:sans-serif;-inkscape-font-specification:'sans-serif, Bold';font-variant-ligatures:normal;font-variant-caps:normal;font-variant-numeric:normal;font-feature-settings:normal;text-align:start;writing-mode:lr-tb;text-anchor:start;fill:#22c2f2;fill-opacity:1"
     id="path969"
     inkscape:connector-curvature="0" />
  <path
     d="m 143.58795,245.29481 q -2.4375,1.1849 -5.0612,1.77735 -2.62369,0.59245 -5.41666,0.59245 -6.3138,0 -10.00391,-3.52084 -3.6901,-3.53776 -3.6901,-9.58073 0,-6.11067 3.75781,-9.61458 3.75781,-3.50391 10.29167,-3.50391 2.52213,0 4.82422,0.47396 2.31901,0.47396 4.36718,1.40495 v 5.23047 q -2.11588,-1.20182 -4.21484,-1.79427 -2.08203,-0.59245 -4.18099,-0.59245 -3.89323,0 -6.00912,2.18359 -2.09895,2.16667 -2.09895,6.21224 0,4.01172 2.03125,6.19532 2.03125,2.18359 5.77213,2.18359 1.01563,0 1.87891,-0.11849 0.88021,-0.13542 1.57422,-0.40625 v -4.90885 h -3.97787 v -4.36719 h 10.15625 z"
     style="font-style:normal;font-variant:normal;font-weight:bold;font-stretch:normal;font-size:34.66666794px;font-family:sans-serif;-inkscape-font-specification:'sans-serif, Bold';font-variant-ligatures:normal;font-variant-caps:normal;font-variant-numeric:normal;font-feature-settings:normal;text-align:start;writing-mode:lr-tb;text-anchor:start;fill:#22c2f2;fill-opacity:1"
     id="path971"
     inkscape:connector-curvature="0" />
  <path
     d="m 164.64524,242.56955 h -10.1901 l -1.60807,4.60417 h -6.55078 l 9.36067,-25.27214 h 7.76953 l 9.36068,25.27214 h -6.55078 z m -8.5651,-4.6888 h 6.92318 l -3.45313,-10.05469 z"
     style="font-style:normal;font-variant:normal;font-weight:bold;font-stretch:normal;font-size:34.66666794px;font-family:sans-serif;-inkscape-font-specification:'sans-serif, Bold';font-variant-ligatures:normal;font-variant-caps:normal;font-variant-numeric:normal;font-feature-settings:normal;text-align:start;writing-mode:lr-tb;text-anchor:start;fill:#22c2f2;fill-opacity:1"
     id="path973"
     inkscape:connector-curvature="0" />
  <path
     d="m 198.83795,245.29481 q -2.4375,1.1849 -5.0612,1.77735 -2.62369,0.59245 -5.41666,0.59245 -6.3138,0 -10.00391,-3.52084 -3.6901,-3.53776 -3.6901,-9.58073 0,-6.11067 3.75781,-9.61458 3.75781,-3.50391 10.29167,-3.50391 2.52213,0 4.82422,0.47396 2.31901,0.47396 4.36718,1.40495 v 5.23047 q -2.11588,-1.20182 -4.21484,-1.79427 -2.08203,-0.59245 -4.18099,-0.59245 -3.89323,0 -6.00912,2.18359 -2.09895,2.16667 -2.09895,6.21224 0,4.01172 2.03125,6.19532 2.03125,2.18359 5.77213,2.18359 1.01563,0 1.87891,-0.11849 0.88021,-0.13542 1.57422,-0.40625 v -4.90885 h -3.97787 v -4.36719 h 10.15625 z"
     style="font-style:normal;font-variant:normal;font-weight:bold;font-stretch:normal;font-size:34.66666794px;font-family:sans-serif;-inkscape-font-specification:'sans-serif, Bold';font-variant-ligatures:normal;font-variant-caps:normal;font-variant-numeric:normal;font-feature-settings:normal;text-align:start;writing-mode:lr-tb;text-anchor:start;fill:#22c2f2;fill-opacity:1"
     id="path975"
     inkscape:connector-curvature="0" />
  <path
     d="m 204.55932,221.90158 h 17.58724 v 4.92579 h -11.07031 v 4.70573 h 10.41016 v 4.92578 h -10.41016 v 5.78906 h 11.44271 v 4.92578 h -17.95964 z"
     style="font-style:normal;font-variant:normal;font-weight:bold;font-stretch:normal;font-size:34.66666794px;font-family:sans-serif;-inkscape-font-specification:'sans-serif, Bold';font-variant-ligatures:normal;font-variant-caps:normal;font-variant-numeric:normal;font-feature-settings:normal;text-align:start;writing-mode:lr-tb;text-anchor:start;fill:#22c2f2;fill-opacity:1"
     id="path977"
     inkscape:connector-curvature="0" />
  <path
     d="m 245.84447,222.69716 v 5.34896 q -2.08203,-0.93099 -4.0625,-1.40495 -1.98047,-0.47396 -3.74089,-0.47396 -2.33594,0 -3.45312,0.64323 -1.11719,0.64323 -1.11719,1.9974 0,1.01562 0.74479,1.59114 0.76172,0.55859 2.74219,0.96484 l 2.77604,0.5586 q 4.21484,0.84635 5.99219,2.57292 1.77734,1.72656 1.77734,4.90885 0,4.18099 -2.48828,6.22917 -2.47135,2.03125 -7.56641,2.03125 -2.40364,0 -4.82421,-0.45703 -2.42058,-0.45704 -4.84115,-1.35417 v -5.5013 q 2.42057,1.28645 4.67187,1.94661 2.26823,0.64323 4.36719,0.64323 2.13281,0 3.26693,-0.71094 1.13411,-0.71093 1.13411,-2.03125 0,-1.18489 -0.77864,-1.82812 -0.76172,-0.64323 -3.0638,-1.15104 l -2.52214,-0.5586 q -3.79167,-0.8125 -5.55208,-2.58984 -1.74349,-1.77735 -1.74349,-4.79037 0,-3.77474 2.4375,-5.80599 2.4375,-2.03125 7.00781,-2.03125 2.08203,0 4.28255,0.32162 2.20052,0.30469 4.55339,0.93099 z"
     style="font-style:normal;font-variant:normal;font-weight:bold;font-stretch:normal;font-size:34.66666794px;font-family:sans-serif;-inkscape-font-specification:'sans-serif, Bold';font-variant-ligatures:normal;font-variant-caps:normal;font-variant-numeric:normal;font-feature-settings:normal;text-align:start;writing-mode:lr-tb;text-anchor:start;fill:#22c2f2;fill-opacity:1"
     id="path979"
     inkscape:connector-curvature="0" />
  <path
     d="m 289.39787,221.90158 h 6.51693 v 15.14975 q 0,3.13151 1.01562,4.48567 1.03255,1.33724 3.35156,1.33724 2.33594,0 3.35157,-1.33724 1.03255,-1.35416 1.03255,-4.48567 v -15.14975 h 6.51693 v 15.14975 q 0,5.36588 -2.69141,7.98958 -2.69141,2.6237 -8.20964,2.6237 -5.5013,0 -8.19271,-2.6237 -2.6914,-2.6237 -2.6914,-7.98958 z"
     style="font-style:normal;font-variant:normal;font-weight:bold;font-stretch:normal;font-size:34.66666794px;font-family:sans-serif;-inkscape-font-specification:'sans-serif, Bold';font-variant-ligatures:normal;font-variant-caps:normal;font-variant-numeric:normal;font-feature-settings:normal;text-align:start;writing-mode:lr-tb;text-anchor:start;fill:#22c2f2;fill-opacity:1"
     id="path981"
     inkscape:connector-curvature="0" />
  <g
     aria-label="4"
     id="text961"
     transform="translate(-21.329123,-53.633597)">
    <path
       d="m 289.57796,290.60419 -7.14323,10.57942 h 7.14323 z m -1.08333,-5.36589 h 7.24479 v 15.94531 h 3.60547 v 4.72266 h -3.60547 v 4.60417 h -6.16146 v -4.60417 h -11.20573 v -5.58594 z"
       style="font-style:normal;font-variant:normal;font-weight:bold;font-stretch:normal;font-size:34.66666794px;font-family:sans-serif;-inkscape-font-specification:'sans-serif, Bold';font-variant-ligatures:normal;font-variant-caps:normal;font-variant-numeric:normal;font-feature-settings:normal;text-align:start;writing-mode:lr-tb;text-anchor:start;fill:#22c2f2;fill-opacity:1;stroke:none;stroke-opacity:1"
       id="path984"
       inkscape:connector-curvature="0" />
  </g>
</svg>
